<svg xmlns="http://www.w3.org/2000/svg" width="1180" height="680" viewBox="0 0 1180 680">
<defs>
  <linearGradient id="bg" x1="0" y1="0" x2="1" y2="1">
    <stop offset="0" stop-color="#07111f"/><stop offset="0.55" stop-color="#0a1a2d"/><stop offset="1" stop-color="#111827"/>
  </linearGradient>
  <linearGradient id="panel" x1="0" y1="0" x2="0" y2="1">
    <stop offset="0" stop-color="#162941"/><stop offset="1" stop-color="#0c1929"/>
  </linearGradient>
  <linearGradient id="blue" x1="0" y1="0" x2="1" y2="1">
    <stop offset="0" stop-color="#53c7ff"/><stop offset="1" stop-color="#346bff"/>
  </linearGradient>
  <linearGradient id="orange" x1="0" y1="0" x2="1" y2="1">
    <stop offset="0" stop-color="#ffd166"/><stop offset="1" stop-color="#ff7a45"/>
  </linearGradient>
  <linearGradient id="green" x1="0" y1="0" x2="1" y2="1">
    <stop offset="0" stop-color="#53e3a6"/><stop offset="1" stop-color="#14b8a6"/>
  </linearGradient>
  <linearGradient id="purple" x1="0" y1="0" x2="1" y2="1">
    <stop offset="0" stop-color="#c084fc"/><stop offset="1" stop-color="#7c3aed"/>
  </linearGradient>
  <filter id="shadow" x="-20%" y="-20%" width="150%" height="150%">
    <feDropShadow dx="0" dy="8" stdDeviation="8" flood-color="#000" flood-opacity="0.38"/>
  </filter>
  <filter id="glow" x="-30%" y="-30%" width="160%" height="160%">
    <feGaussianBlur stdDeviation="3" result="blur"/><feMerge><feMergeNode in="blur"/><feMergeNode in="SourceGraphic"/></feMerge>
  </filter>
  <marker id="arrow" markerWidth="10" markerHeight="10" refX="8" refY="3" orient="auto" markerUnits="strokeWidth"><path d="M0,0 L0,6 L9,3 z" fill="#7dd3fc"/></marker>
  <marker id="arrowO" markerWidth="10" markerHeight="10" refX="8" refY="3" orient="auto" markerUnits="strokeWidth"><path d="M0,0 L0,6 L9,3 z" fill="#fbbf24"/></marker>
</defs>
<rect width="100%" height="100%" fill="url(#bg)"/>
<style>
  text { font-family: Inter, Arial, sans-serif; fill: #e8f2ff; }
  .mono { font-family: Consolas, 'Liberation Mono', monospace; }
  .title { font-size: 30px; font-weight: 750; }
  .sub { font-size: 16px; fill:#a8c7e8; }
  .h { font-size: 18px; font-weight: 700; fill:#eaf6ff; }
  .label { font-size: 14px; fill:#d9ecff; font-weight: 650; }
  .small { font-size: 12px; fill:#b8cde2; }
  .tiny { font-size: 10.5px; fill:#9fb5cd; }
  .box { fill: rgba(22,45,69,.95); stroke:#60a5fa; stroke-width:1.5; }
  .box2 { fill: rgba(31,41,55,.88); stroke:#94a3b8; stroke-width:1.3; }
  .boxg { fill: rgba(20,78,74,.8); stroke:#5eead4; stroke-width:1.3; }
  .boxo { fill: rgba(90,55,20,.82); stroke:#fbbf24; stroke-width:1.3; }
  .boxp { fill: rgba(55,38,94,.82); stroke:#c084fc; stroke-width:1.3; }
  .warn { fill: rgba(127,29,29,.85); stroke:#fb7185; stroke-width:1.4; }
  .line { fill:none; stroke:#7dd3fc; stroke-width:2.2; marker-end:url(#arrow); }
  .lineo { fill:none; stroke:#fbbf24; stroke-width:2.2; marker-end:url(#arrowO); }
  .dim { opacity:.55; }
</style>
<g opacity="0.15" stroke="#8bb8ff" stroke-width="1">
<line x1="0" y1="0" x2="0" y2="680"/>
<line x1="40" y1="0" x2="40" y2="680"/>
<line x1="80" y1="0" x2="80" y2="680"/>
<line x1="120" y1="0" x2="120" y2="680"/>
<line x1="160" y1="0" x2="160" y2="680"/>
<line x1="200" y1="0" x2="200" y2="680"/>
<line x1="240" y1="0" x2="240" y2="680"/>
<line x1="280" y1="0" x2="280" y2="680"/>
<line x1="320" y1="0" x2="320" y2="680"/>
<line x1="360" y1="0" x2="360" y2="680"/>
<line x1="400" y1="0" x2="400" y2="680"/>
<line x1="440" y1="0" x2="440" y2="680"/>
<line x1="480" y1="0" x2="480" y2="680"/>
<line x1="520" y1="0" x2="520" y2="680"/>
<line x1="560" y1="0" x2="560" y2="680"/>
<line x1="600" y1="0" x2="600" y2="680"/>
<line x1="640" y1="0" x2="640" y2="680"/>
<line x1="680" y1="0" x2="680" y2="680"/>
<line x1="720" y1="0" x2="720" y2="680"/>
<line x1="760" y1="0" x2="760" y2="680"/>
<line x1="800" y1="0" x2="800" y2="680"/>
<line x1="840" y1="0" x2="840" y2="680"/>
<line x1="880" y1="0" x2="880" y2="680"/>
<line x1="920" y1="0" x2="920" y2="680"/>
<line x1="960" y1="0" x2="960" y2="680"/>
<line x1="1000" y1="0" x2="1000" y2="680"/>
<line x1="1040" y1="0" x2="1040" y2="680"/>
<line x1="1080" y1="0" x2="1080" y2="680"/>
<line x1="1120" y1="0" x2="1120" y2="680"/>
<line x1="1160" y1="0" x2="1160" y2="680"/>
<line x1="0" y1="0" x2="1180" y2="0"/>
<line x1="0" y1="40" x2="1180" y2="40"/>
<line x1="0" y1="80" x2="1180" y2="80"/>
<line x1="0" y1="120" x2="1180" y2="120"/>
<line x1="0" y1="160" x2="1180" y2="160"/>
<line x1="0" y1="200" x2="1180" y2="200"/>
<line x1="0" y1="240" x2="1180" y2="240"/>
<line x1="0" y1="280" x2="1180" y2="280"/>
<line x1="0" y1="320" x2="1180" y2="320"/>
<line x1="0" y1="360" x2="1180" y2="360"/>
<line x1="0" y1="400" x2="1180" y2="400"/>
<line x1="0" y1="440" x2="1180" y2="440"/>
<line x1="0" y1="480" x2="1180" y2="480"/>
<line x1="0" y1="520" x2="1180" y2="520"/>
<line x1="0" y1="560" x2="1180" y2="560"/>
<line x1="0" y1="600" x2="1180" y2="600"/>
<line x1="0" y1="640" x2="1180" y2="640"/>
<line x1="0" y1="680" x2="1180" y2="680"/>
</g><text x="60" y="78" class="title">内容制作管线 / Level Authoring Pipeline</text><text x="60" y="108" class="sub">关卡要可量产：用配置描述目标、模块限制、样例、测试和提示</text><rect x="90" y="210" width="130" height="90" rx="10" class="box" filter="url(#shadow)"/>
<text x="155.0" y="250.0" class="label" text-anchor="middle">Level Spec</text>
<text x="155.0" y="273.0" class="tiny mono" text-anchor="middle">YAML/JSON · 目标与限制</text><rect x="260" y="210" width="130" height="90" rx="10" class="box" filter="url(#shadow)"/>
<text x="325.0" y="250.0" class="label" text-anchor="middle">Reference</text>
<text x="325.0" y="273.0" class="tiny mono" text-anchor="middle">小型实现 · 期望输出</text><rect x="430" y="210" width="130" height="90" rx="10" class="box" filter="url(#shadow)"/>
<text x="495.0" y="250.0" class="label" text-anchor="middle">Tests</text>
<text x="495.0" y="273.0" class="tiny mono" text-anchor="middle">shape/value · behavior eval</text><rect x="600" y="210" width="130" height="90" rx="10" class="box" filter="url(#shadow)"/>
<text x="665.0" y="250.0" class="label" text-anchor="middle">Hints</text>
<text x="665.0" y="273.0" class="tiny mono" text-anchor="middle">错误模式 · 渐进提示</text><rect x="770" y="210" width="130" height="90" rx="10" class="box" filter="url(#shadow)"/>
<text x="835.0" y="250.0" class="label" text-anchor="middle">Localization</text>
<text x="835.0" y="273.0" class="tiny mono" text-anchor="middle">中英文本 · 术语表</text><rect x="940" y="210" width="130" height="90" rx="10" class="box" filter="url(#shadow)"/>
<text x="1005.0" y="250.0" class="label" text-anchor="middle">Publish</text>
<text x="1005.0" y="273.0" class="tiny mono" text-anchor="middle">版本号 · 回归测试</text><path d="M220 255 L250 255" class="line"/><path d="M390 255 L420 255" class="line"/><path d="M560 255 L590 255" class="line"/><path d="M730 255 L760 255" class="line"/><path d="M900 255 L930 255" class="line"/>
<rect x="120" y="380" width="940" height="170" rx="14" class="box2" filter="url(#shadow)"/>
<text x="150" y="417" class="h">关卡配置的核心字段</text>
<text x="150" y="455" class="tiny mono">id, title, unlocked_modules, fixed_modules, target_graph, input_cases, reference_function</text>
<text x="150" y="485" class="tiny mono">tests: shape_tests, numeric_tests, mask_tests, loss_tests, behavior_tests, resource_limits</text>
<text x="150" y="515" class="tiny mono">hints: detect_pattern → explanation → visual_highlight → next_action</text>
</svg>