<svg xmlns="http://www.w3.org/2000/svg" width="1180" height="700" viewBox="0 0 1180 700">
<defs>
  <linearGradient id="bg" x1="0" y1="0" x2="1" y2="1">
    <stop offset="0" stop-color="#08111f"/>
    <stop offset="0.55" stop-color="#0b1d33"/>
    <stop offset="1" stop-color="#101827"/>
  </linearGradient>
  <linearGradient id="panel" x1="0" y1="0" x2="0" y2="1">
    <stop offset="0" stop-color="#15273c"/>
    <stop offset="1" stop-color="#0d1928"/>
  </linearGradient>
  <linearGradient id="blue" x1="0" y1="0" x2="1" y2="1">
    <stop offset="0" stop-color="#4fc3ff"/>
    <stop offset="1" stop-color="#3568ff"/>
  </linearGradient>
  <linearGradient id="orange" x1="0" y1="0" x2="1" y2="1">
    <stop offset="0" stop-color="#ffd166"/>
    <stop offset="1" stop-color="#ff7a45"/>
  </linearGradient>
  <linearGradient id="green" x1="0" y1="0" x2="1" y2="1">
    <stop offset="0" stop-color="#4ade80"/>
    <stop offset="1" stop-color="#14b8a6"/>
  </linearGradient>
  <filter id="shadow" x="-20%" y="-20%" width="140%" height="150%">
    <feDropShadow dx="0" dy="8" stdDeviation="8" flood-color="#000" flood-opacity="0.35"/>
  </filter>
  <filter id="glow" x="-30%" y="-30%" width="160%" height="160%">
    <feGaussianBlur stdDeviation="3" result="coloredBlur"/>
    <feMerge><feMergeNode in="coloredBlur"/><feMergeNode in="SourceGraphic"/></feMerge>
  </filter>
  <marker id="arrow" markerWidth="10" markerHeight="10" refX="8" refY="3" orient="auto" markerUnits="strokeWidth"><path d="M0,0 L0,6 L9,3 z" fill="#7dd3fc"/></marker>
  <marker id="arrowOrange" markerWidth="10" markerHeight="10" refX="8" refY="3" orient="auto" markerUnits="strokeWidth"><path d="M0,0 L0,6 L9,3 z" fill="#fbbf24"/></marker>
</defs>
<rect width="100%" height="100%" fill="url(#bg)"/>
<g opacity="0.19" stroke="#8bb8ff" stroke-width="1">
  <line x1="0" y1="0" x2="0" y2="700"/><line x1="40" y1="0" x2="40" y2="700"/><line x1="80" y1="0" x2="80" y2="700"/><line x1="120" y1="0" x2="120" y2="700"/><line x1="160" y1="0" x2="160" y2="700"/><line x1="200" y1="0" x2="200" y2="700"/><line x1="240" y1="0" x2="240" y2="700"/><line x1="280" y1="0" x2="280" y2="700"/><line x1="320" y1="0" x2="320" y2="700"/><line x1="360" y1="0" x2="360" y2="700"/><line x1="400" y1="0" x2="400" y2="700"/><line x1="440" y1="0" x2="440" y2="700"/><line x1="480" y1="0" x2="480" y2="700"/><line x1="520" y1="0" x2="520" y2="700"/><line x1="560" y1="0" x2="560" y2="700"/><line x1="600" y1="0" x2="600" y2="700"/><line x1="640" y1="0" x2="640" y2="700"/><line x1="680" y1="0" x2="680" y2="700"/><line x1="720" y1="0" x2="720" y2="700"/><line x1="760" y1="0" x2="760" y2="700"/><line x1="800" y1="0" x2="800" y2="700"/><line x1="840" y1="0" x2="840" y2="700"/><line x1="880" y1="0" x2="880" y2="700"/><line x1="920" y1="0" x2="920" y2="700"/><line x1="960" y1="0" x2="960" y2="700"/><line x1="1000" y1="0" x2="1000" y2="700"/><line x1="1040" y1="0" x2="1040" y2="700"/><line x1="1080" y1="0" x2="1080" y2="700"/><line x1="1120" y1="0" x2="1120" y2="700"/><line x1="1160" y1="0" x2="1160" y2="700"/>
  <line x1="0" y1="0" x2="1180" y2="0"/><line x1="0" y1="40" x2="1180" y2="40"/><line x1="0" y1="80" x2="1180" y2="80"/><line x1="0" y1="120" x2="1180" y2="120"/><line x1="0" y1="160" x2="1180" y2="160"/><line x1="0" y1="200" x2="1180" y2="200"/><line x1="0" y1="240" x2="1180" y2="240"/><line x1="0" y1="280" x2="1180" y2="280"/><line x1="0" y1="320" x2="1180" y2="320"/><line x1="0" y1="360" x2="1180" y2="360"/><line x1="0" y1="400" x2="1180" y2="400"/><line x1="0" y1="440" x2="1180" y2="440"/><line x1="0" y1="480" x2="1180" y2="480"/><line x1="0" y1="520" x2="1180" y2="520"/><line x1="0" y1="560" x2="1180" y2="560"/><line x1="0" y1="600" x2="1180" y2="600"/><line x1="0" y1="640" x2="1180" y2="640"/><line x1="0" y1="680" x2="1180" y2="680"/>
</g>
<style>
  text { font-family: Inter, 'Noto Sans SC', 'Microsoft YaHei', Arial, sans-serif; fill: #e8f2ff; }
  .mono { font-family: 'SFMono-Regular', Consolas, 'Liberation Mono', monospace; }
  .small { font-size: 14px; fill: #b6c7dc; }
  .tiny { font-size: 11px; fill: #9fb4ce; }
  .title { font-size: 28px; font-weight: 700; }
  .sub { font-size: 16px; fill: #a8c7e8; }
  .label { font-size: 13px; fill: #d9ecff; font-weight: 600; }
  .port { fill: #061629; stroke: #60a5fa; stroke-width: 1.5; }
</style>
<text x="52" y="55" class="title" text-anchor="start">主界面：Model Board + 3D 展开 + 执行追踪</text><text x="52" y="84" class="sub" text-anchor="start">默认像电路板，点击模块后才进入 3D 张量展开视角。</text><rect x="40" y="110" width="190" height="450" rx="12" fill="rgba(12,24,38,.92)" stroke="#3b82f6" stroke-width="1.5" /><text x="62" y="140" class="label" text-anchor="start">工具箱</text><rect x="62" y="165" width="145" height="24" rx="6" fill="rgba(37,74,112,.78)" stroke="#2f70a8" stroke-width="1.5" /><text x="77" y="182" class="tiny mono" text-anchor="start">Data</text><rect x="62" y="199" width="145" height="24" rx="6" fill="rgba(37,74,112,.78)" stroke="#2f70a8" stroke-width="1.5" /><text x="77" y="216" class="tiny mono" text-anchor="start">Tokenizer</text><rect x="62" y="233" width="145" height="24" rx="6" fill="rgba(37,74,112,.78)" stroke="#2f70a8" stroke-width="1.5" /><text x="77" y="250" class="tiny mono" text-anchor="start">Embedding</text><rect x="62" y="267" width="145" height="24" rx="6" fill="rgba(37,74,112,.78)" stroke="#2f70a8" stroke-width="1.5" /><text x="77" y="284" class="tiny mono" text-anchor="start">Linear</text><rect x="62" y="301" width="145" height="24" rx="6" fill="rgba(37,74,112,.78)" stroke="#2f70a8" stroke-width="1.5" /><text x="77" y="318" class="tiny mono" text-anchor="start">QKV Split</text><rect x="62" y="335" width="145" height="24" rx="6" fill="rgba(37,74,112,.78)" stroke="#2f70a8" stroke-width="1.5" /><text x="77" y="352" class="tiny mono" text-anchor="start">Mask</text><rect x="62" y="369" width="145" height="24" rx="6" fill="rgba(37,74,112,.78)" stroke="#2f70a8" stroke-width="1.5" /><text x="77" y="386" class="tiny mono" text-anchor="start">Softmax</text><rect x="62" y="403" width="145" height="24" rx="6" fill="rgba(37,74,112,.78)" stroke="#2f70a8" stroke-width="1.5" /><text x="77" y="420" class="tiny mono" text-anchor="start">LayerNorm</text><rect x="62" y="437" width="145" height="24" rx="6" fill="rgba(37,74,112,.78)" stroke="#2f70a8" stroke-width="1.5" /><text x="77" y="454" class="tiny mono" text-anchor="start">MLP</text><rect x="62" y="471" width="145" height="24" rx="6" fill="rgba(37,74,112,.78)" stroke="#2f70a8" stroke-width="1.5" /><text x="77" y="488" class="tiny mono" text-anchor="start">Loss</text><rect x="62" y="505" width="145" height="24" rx="6" fill="rgba(37,74,112,.78)" stroke="#2f70a8" stroke-width="1.5" /><text x="77" y="522" class="tiny mono" text-anchor="start">Optimizer</text><rect x="255" y="110" width="620" height="450" rx="14" fill="rgba(9,20,34,.84)" stroke="#60a5fa" stroke-width="1.5" /><text x="280" y="140" class="label" text-anchor="start">模型搭建板 / Shape-Checked Graph</text><rect x="300" y="180" width="110" height="54" rx="8" fill="rgba(22,50,76,.95)" stroke="#7dd3fc" stroke-width="1.5" /><text x="355" y="203" class="label" text-anchor="middle">Dataset</text><text x="355" y="223" class="tiny mono" text-anchor="middle">jsonl</text><rect x="445" y="180" width="110" height="54" rx="8" fill="rgba(22,50,76,.95)" stroke="#7dd3fc" stroke-width="1.5" /><text x="500" y="203" class="label" text-anchor="middle">Tokenizer</text><text x="500" y="223" class="tiny mono" text-anchor="middle">int[B,T]</text><rect x="590" y="180" width="110" height="54" rx="8" fill="rgba(22,50,76,.95)" stroke="#7dd3fc" stroke-width="1.5" /><text x="645" y="203" class="label" text-anchor="middle">Embedding</text><text x="645" y="223" class="tiny mono" text-anchor="middle">[B,T,C]</text><rect x="735" y="180" width="110" height="54" rx="8" fill="rgba(22,50,76,.95)" stroke="#7dd3fc" stroke-width="1.5" /><text x="790" y="203" class="label" text-anchor="middle">Block×N</text><text x="790" y="223" class="tiny mono" text-anchor="middle">[B,T,C]</text><rect x="590" y="320" width="110" height="54" rx="8" fill="rgba(22,50,76,.95)" stroke="#7dd3fc" stroke-width="1.5" /><text x="645" y="343" class="label" text-anchor="middle">LM Head</text><text x="645" y="363" class="tiny mono" text-anchor="middle">[B,T,V]</text><rect x="735" y="320" width="110" height="54" rx="8" fill="rgba(22,50,76,.95)" stroke="#7dd3fc" stroke-width="1.5" /><text x="790" y="343" class="label" text-anchor="middle">Loss</text><text x="790" y="363" class="tiny mono" text-anchor="middle">scalar</text><path d="M410 207 L445 207" fill="none" stroke="#7dd3fc" stroke-width="2" marker-end="url(#arrow)" /><path d="M555 207 L590 207" fill="none" stroke="#7dd3fc" stroke-width="2" marker-end="url(#arrow)" /><path d="M700 207 L735 207" fill="none" stroke="#7dd3fc" stroke-width="2" marker-end="url(#arrow)" /><path d="M790 235 C790 280 650 275 650 320" fill="none" stroke="#7dd3fc" stroke-width="2" marker-end="url(#arrow)" /><path d="M700 347 L735 347" fill="none" stroke="#7dd3fc" stroke-width="2" marker-end="url(#arrow)" /><rect x="900" y="110" width="240" height="450" rx="12" fill="rgba(12,24,38,.92)" stroke="#3b82f6" stroke-width="1.5" /><text x="925" y="140" class="label" text-anchor="start">检查器 / Inspector</text><text x="925" y="175" class="tiny mono" text-anchor="start">Module</text><text x="1038" y="175" class="tiny mono" text-anchor="end">CausalSelfAttention</text><line x1="925" y1="185" x2="1115" y2="185" stroke="#294766" stroke-width="1" /><text x="925" y="217" class="tiny mono" text-anchor="start">Input</text><text x="1038" y="217" class="tiny mono" text-anchor="end">float[B,T,C]</text><line x1="925" y1="227" x2="1115" y2="227" stroke="#294766" stroke-width="1" /><text x="925" y="259" class="tiny mono" text-anchor="start">Output</text><text x="1038" y="259" class="tiny mono" text-anchor="end">float[B,T,C]</text><line x1="925" y1="269" x2="1115" y2="269" stroke="#294766" stroke-width="1" /><text x="925" y="301" class="tiny mono" text-anchor="start">n_head</text><text x="1038" y="301" class="tiny mono" text-anchor="end">4</text><line x1="925" y1="311" x2="1115" y2="311" stroke="#294766" stroke-width="1" /><text x="925" y="343" class="tiny mono" text-anchor="start">head_dim</text><text x="1038" y="343" class="tiny mono" text-anchor="end">32</text><line x1="925" y1="353" x2="1115" y2="353" stroke="#294766" stroke-width="1" /><text x="925" y="385" class="tiny mono" text-anchor="start">params</text><text x="1038" y="385" class="tiny mono" text-anchor="end">65,536</text><line x1="925" y1="395" x2="1115" y2="395" stroke="#294766" stroke-width="1" /><text x="925" y="427" class="tiny mono" text-anchor="start">tests</text><text x="1038" y="427" class="tiny mono" text-anchor="end">7 / 8 pass</text><line x1="925" y1="437" x2="1115" y2="437" stroke="#294766" stroke-width="1" /><rect x="40" y="585" width="1100" height="70" rx="12" fill="rgba(15,31,50,.92)" stroke="#334d67" stroke-width="1.5" /><rect x="80" y="607" width="92" height="28" rx="6" fill="rgba(37,74,112,.8)" stroke="#5fa8d3" stroke-width="1.5" /><text x="126" y="626" class="tiny mono" text-anchor="middle">Tokenize</text><line x1="178" y1="621" x2="206" y2="621" stroke="#7dd3fc" stroke-width="1.6" marker-end="url(#arrow)" /><rect x="210" y="607" width="92" height="28" rx="6" fill="rgba(37,74,112,.8)" stroke="#5fa8d3" stroke-width="1.5" /><text x="256" y="626" class="tiny mono" text-anchor="middle">Embed</text><line x1="308" y1="621" x2="336" y2="621" stroke="#7dd3fc" stroke-width="1.6" marker-end="url(#arrow)" /><rect x="340" y="607" width="92" height="28" rx="6" fill="rgba(37,74,112,.8)" stroke="#5fa8d3" stroke-width="1.5" /><text x="386" y="626" class="tiny mono" text-anchor="middle">Block 0</text><line x1="438" y1="621" x2="466" y2="621" stroke="#7dd3fc" stroke-width="1.6" marker-end="url(#arrow)" /><rect x="470" y="607" width="92" height="28" rx="6" fill="rgba(37,74,112,.8)" stroke="#5fa8d3" stroke-width="1.5" /><text x="516" y="626" class="tiny mono" text-anchor="middle">Block 1</text><line x1="568" y1="621" x2="596" y2="621" stroke="#7dd3fc" stroke-width="1.6" marker-end="url(#arrow)" /><rect x="600" y="607" width="92" height="28" rx="6" fill="rgba(37,74,112,.8)" stroke="#5fa8d3" stroke-width="1.5" /><text x="646" y="626" class="tiny mono" text-anchor="middle">LM Head</text><line x1="698" y1="621" x2="726" y2="621" stroke="#7dd3fc" stroke-width="1.6" marker-end="url(#arrow)" /><rect x="730" y="607" width="92" height="28" rx="6" fill="rgba(111,78,24,.8)" stroke="#5fa8d3" stroke-width="1.5" /><text x="776" y="626" class="tiny mono" text-anchor="middle">Loss</text><line x1="828" y1="621" x2="856" y2="621" stroke="#7dd3fc" stroke-width="1.6" marker-end="url(#arrow)" /><rect x="860" y="607" width="92" height="28" rx="6" fill="rgba(111,78,24,.8)" stroke="#5fa8d3" stroke-width="1.5" /><text x="906" y="626" class="tiny mono" text-anchor="middle">Backward</text><line x1="958" y1="621" x2="986" y2="621" stroke="#7dd3fc" stroke-width="1.6" marker-end="url(#arrow)" /><rect x="990" y="607" width="92" height="28" rx="6" fill="rgba(111,78,24,.8)" stroke="#5fa8d3" stroke-width="1.5" /><text x="1036" y="626" class="tiny mono" text-anchor="middle">Adam Step</text>
</svg>